<?xml version="1.0"?><svg enable-background="new 0 0 52 52" id="Layer_1" version="1.1" viewBox="0 0 52 52" xml:space="preserve" xmlns="http://www.w3.org/2000/svg" xmlns:xlink="http://www.w3.org/1999/xlink"><g><g><g><path d="M30,38H2V2h28V38z M4,36h24V4H4V36z"/></g></g><g><g><path d="M32,50h-1.2978516c-7.1679688,0-13-5.831543-13-13h2c0,6.0654297,4.9345703,11,11,11H32c6.0654297,0,11-4.9345703,11-11     V13h2v24C45,44.168457,39.1679688,50,32,50z"/></g></g><g><g><g><g><path d="M48.3330078,7.5292969h-8.6660156V2h8.6660156V7.5292969z M41.6669922,5.5292969h4.6660156V4h-4.6660156V5.5292969z"/></g></g></g><g><g><path d="M47,14h-6c-1.6542969,0-3-1.3457031-3-3V5.5292969h12V11C50,12.6542969,48.6542969,14,47,14z M40,7.5292969V11      c0,0.5512695,0.4482422,1,1,1h6c0.5517578,0,1-0.4487305,1-1V7.5292969H40z"/></g></g></g><g><g><path d="M22.5,34c-1.9296875,0-3.5-1.5703125-3.5-3.5s1.5703125-3.5,3.5-3.5s3.5,1.5703125,3.5,3.5S24.4296875,34,22.5,34z      M22.5,29c-0.8271484,0-1.5,0.6728516-1.5,1.5s0.6728516,1.5,1.5,1.5s1.5-0.6728516,1.5-1.5S23.3271484,29,22.5,29z"/></g></g><g><g><g><path d="M9.5710258,19.2402554c0.2226849-0.3055248,0.3331223-0.6146851,0.3331223-0.9274845      c0-0.3127975-0.1185837-0.5792217-0.3557529-0.7988186c-0.2371683-0.219595-0.5377026-0.3296204-0.9006968-0.3296204      c-0.6381826,0-1.167738,0.3278027-1.590477,0.9829521l-1.0573006-0.6142311      c0.341269-0.5142078,0.7178421-0.9015694,1.1297183-1.1620827c0.4109716-0.2609673,0.9414325-0.3909979,1.5904775-0.3909979      s1.2175245,0.2064104,1.7072506,0.620141c0.4897261,0.4132767,0.7341356,0.9774952,0.7341356,1.6926575      c0,0.4023647-0.1041002,0.786087-0.3113966,1.1507168c-0.2072964,0.3650818-0.5893002,0.83428-1.1460123,1.4080467      l-1.8240247,1.8658791h3.5258441v1.2625599H6.0895381v-1.117527l2.3581061-2.3796329      C8.9735785,19.9663296,9.348341,19.5457783,9.5710258,19.2402554z"/></g></g><g><g><path d="M16.0116882,17.3966541v6.6033192h-1.3125734v-6.6033192h-2.3581057v-1.2070923h6.0287857v1.2070923H16.0116882z"/></g></g><g><g><path d="M23.1964455,23.9999733h-3.4036388v-7.8104115h3.0252552c0.5268402,0,0.9812622,0.0636501,1.363266,0.1900425      c0.3810978,0.1268463,0.6653385,0.2982502,0.8509102,0.5142078c0.355751,0.4019089,0.5331764,0.8565578,0.5331764,1.3630371      c0,0.6110477-0.1928139,1.0652428-0.5784378,1.3630371c-0.1403103,0.1045685-0.2371693,0.1695843-0.2887669,0.1954994      c-0.0515976,0.0263691-0.1448364,0.0691051-0.2779026,0.1286659c0.4815788,0.1045685,0.8653927,0.3223457,1.1514435,0.6537838      c0.2851448,0.33144,0.4281693,0.742897,0.4281693,1.2343712c0,0.5437603-0.1855698,1.0243244-0.5567112,1.4416924      C25.0059853,23.7580986,24.2564602,23.9999733,23.1964455,23.9999733z M21.1053791,19.4298439h1.6683273      c0.9495773,0,1.4239159-0.3237114,1.4239159-0.9720402c0-0.3723564-0.1149635-0.6406002-0.3448906-0.8042736      s-0.58568-0.2459641-1.0681629-0.2459641h-1.6791897V19.4298439z M21.1053791,22.7819691h2.0575733      c0.4824829,0,0.8509083-0.0763817,1.1070862-0.2291431c0.2552738-0.1523075,0.3838158-0.4410095,0.3838158-0.8656521      c0-0.6928844-0.553091-1.0393257-1.6574631-1.0393257h-1.8910122V22.7819691z"/></g></g></g></g></svg>